<svg xmlns="http://www.w3.org/2000/svg" viewBox="0 0 820 280" font-family="Segoe UI, Helvetica, Arial, sans-serif">
<title>A kommunikáció közvetítő közegei: látás, hallás, tapintás, szaglás, ízlelés</title>
<defs><marker id="a" markerWidth="12" markerHeight="12" refX="10" refY="6" orient="auto" markerUnits="userSpaceOnUse" viewBox="0 0 10 10"><path d="M0,0 L10,5 L0,10 z" fill="#555"/></marker></defs>
<rect width="820" height="280" rx="18" fill="#fbfaff"/>
<text x="410" y="44" text-anchor="middle" font-size="24" font-weight="800" fill="#23395d">Milyen érzékszervvel fogjuk fel az üzenetet?</text>
<g transform="translate(110,0)"><circle cx="0" cy="130" r="52" fill="#3f7fd6"/><ellipse cx="0" cy="130" rx="32" ry="18" fill="#fff"/><circle cx="0" cy="130" r="11" fill="#23395d"/><text x="0" y="220" text-anchor="middle" font-size="17" font-weight="800" fill="#23395d">vizuális</text><text x="0" y="242" text-anchor="middle" font-size="13" fill="#555">látással</text></g>
<g transform="translate(260,0)"><circle cx="0" cy="130" r="52" fill="#8e5cc7"/><path d="M-30,118 h14 l20,-16 v56 l-20,-16 h-14 z" fill="#fff"/><g fill="none" stroke="#fff" stroke-width="5" stroke-linecap="round"><path d="M12,116 q10,14 0,28"/><path d="M22,106 q18,24 0,48"/></g><text x="0" y="220" text-anchor="middle" font-size="17" font-weight="800" fill="#23395d">auditív</text><text x="0" y="242" text-anchor="middle" font-size="13" fill="#555">hallással</text></g>
<g transform="translate(410,0)"><circle cx="0" cy="130" r="52" fill="#f0a830"/><rect x="-18" y="122" width="36" height="34" rx="8" fill="#fff"/><g fill="#fff"><rect x="-18" y="98" width="8" height="30" rx="4"/><rect x="-7" y="92" width="8" height="34" rx="4"/><rect x="4" y="95" width="8" height="32" rx="4"/><rect x="15" y="104" width="7" height="24" rx="3"/></g><text x="0" y="220" text-anchor="middle" font-size="17" font-weight="800" fill="#23395d">taktilis</text><text x="0" y="242" text-anchor="middle" font-size="13" fill="#555">tapintással</text></g>
<g transform="translate(560,0)"><circle cx="0" cy="130" r="52" fill="#2ea99a"/><path d="M-4,100 q-4,30 -16,42 q10,8 20,4 q10,4 20,-4 q-12,-12 -16,-42 z" fill="#fff"/><text x="0" y="220" text-anchor="middle" font-size="17" font-weight="800" fill="#23395d">szaglással</text><text x="0" y="242" text-anchor="middle" font-size="13" fill="#555">(olfaktorikus)</text></g>
<g transform="translate(710,0)"><circle cx="0" cy="130" r="52" fill="#e25c4b"/><path d="M-30,118 q30,20 60,0 q-4,34 -30,34 q-26,0 -30,-34 z" fill="#fff"/><line x1="0" y1="124" x2="0" y2="146" stroke="#e25c4b" stroke-width="3"/><text x="0" y="220" text-anchor="middle" font-size="17" font-weight="800" fill="#23395d">ízleléssel</text><text x="0" y="242" text-anchor="middle" font-size="13" fill="#555">(gusztatorikus)</text></g>
</svg>